<?xml version="1.0" encoding="UTF-8" standalone="no"?>
<!-- Created with Inkscape (http://www.inkscape.org/) -->
<svg
   xmlns:dc="http://purl.org/dc/elements/1.1/"
   xmlns:cc="http://creativecommons.org/ns#"
   xmlns:rdf="http://www.w3.org/1999/02/22-rdf-syntax-ns#"
   xmlns:svg="http://www.w3.org/2000/svg"
   xmlns="http://www.w3.org/2000/svg"
   xmlns:sodipodi="http://sodipodi.sourceforge.net/DTD/sodipodi-0.dtd"
   xmlns:inkscape="http://www.inkscape.org/namespaces/inkscape"
   width="1052.36"
   height="744.09448"
   id="svg2403"
   sodipodi:version="0.32"
   inkscape:version="0.46"
   sodipodi:docname="level.svg"
   inkscape:output_extension="org.inkscape.output.svg.inkscape">
  <defs
     id="defs2405">
    <inkscape:perspective
       sodipodi:type="inkscape:persp3d"
       inkscape:vp_x="0 : 372.04724 : 1"
       inkscape:vp_y="0 : 1000 : 0"
       inkscape:vp_z="1052.3622 : 372.04724 : 1"
       inkscape:persp3d-origin="526.18109 : 248.03149 : 1"
       id="perspective2412" />
  </defs>
  <sodipodi:namedview
     inkscape:document-units="px"
     pagecolor="#62b5df"
     bordercolor="#666666"
     borderopacity="1"
     inkscape:pageopacity="0"
     inkscape:pageshadow="2"
     inkscape:zoom="0.86831673"
     inkscape:cx="490"
     inkscape:cy="380"
     inkscape:current-layer="g2442"
     id="namedview2407"
     showgrid="false"
     inkscape:window-width="645"
     inkscape:window-height="717"
     inkscape:window-x="-5"
     inkscape:window-y="0" />
  <metadata
     id="metadata2409">
    <rdf:RDF>
      <cc:Work
         rdf:about="">
        <dc:format>image/svg+xml</dc:format>
        <dc:type
           rdf:resource="http://purl.org/dc/dcmitype/StillImage" />
      </cc:Work>
    </rdf:RDF>
  </metadata>
  <g
     inkscape:label="Layer 1"
     inkscape:groupmode="layer"
     id="layer1">
    <g
       id="g2442"
       transform="translate(0,-2)">
      <path
         sodipodi:nodetypes="cssssssssssssssssss"
         id="path2440"
         d="M 253.66708,306.46616 C 300.71397,312.0442 304.97091,310.88948 345.79936,297.25292 C 369.25245,289.41967 392.25871,294.68178 405.81516,308.64236 C 420.83532,324.11027 425.3971,349.71553 428.71841,368.65544 C 436.43918,412.68348 456.22411,423.51077 493.21101,442.36126 C 519.34805,455.68209 553.51316,447.29718 577.66449,428.16809 C 599.52532,410.85319 623.63434,381.71508 632.56108,368.65544 C 652.07522,340.10664 673.35479,302.87193 691.29542,276.52316 C 703.82393,258.12299 719.80349,236.99219 745.4461,237.19644 C 776.0663,237.44034 788.71136,233.19318 811.06738,248.88348 C 840.74169,269.71003 837.76921,317.13179 825.03431,364.08828 C 815.02775,400.98475 798.9937,437.59395 788.0343,460.78773 C 774.40436,489.63329 759.78724,514.99402 738.19594,533.18048 C 718.84905,549.47647 693.90254,560.01218 659.04912,562.13324 C 589.73481,566.35147 549.39241,586.61041 463.26802,569.04315 C 404.174,556.98942 367.02697,536.69703 308.94644,520.67371 C 272.47766,510.61265 225.00857,481.13589 219.11747,440.05796 C 215.69149,416.16902 204.10728,376.02114 206.34342,345.85818 C 208.21095,320.66745 219.71794,302.44103 253.66708,306.46616 z"
         style="fill:#0058a5;fill-opacity:1;fill-rule:evenodd;stroke:#000000;stroke-width:1px;stroke-linecap:butt;stroke-linejoin:miter;stroke-opacity:1"
         inkscape:label="material: stone" />
    </g>
    <g
       id="start"
       transform="translate(0,-18)"
       inkscape:label="#g2393">
      <path
         d="M 307.49148,290.343 L 302.03171,287.92051 L 296.94089,291.0448 L 297.55765,285.10365 L 293.01313,281.22746 L 298.85408,279.97811 L 301.13623,274.45821 L 304.12938,279.62721 L 310.08434,280.09192 L 306.09326,284.53588 L 307.49148,290.343 z"
         inkscape:randomized="0"
         inkscape:rounded="0"
         inkscape:flatsided="false"
         sodipodi:arg2="1.5043766"
         sodipodi:arg1="0.87605805"
         sodipodi:r2="4.4973507"
         sodipodi:r1="8.9947014"
         sodipodi:cy="283.43307"
         sodipodi:cx="301.73322"
         sodipodi:sides="5"
         id="path2387"
         style="fill:#f2ff00;fill-opacity:1;stroke:#000000;stroke-width:1;stroke-linecap:square;stroke-miterlimit:4;stroke-dasharray:none;stroke-opacity:1"
         sodipodi:type="star"
         inkscape:label="sensor: true" />
    </g>
    <g
       id="goal"
       transform="translate(16.42189,22.909921)"
       inkscape:label="#g2396">
      <path
         d="M 745.11984,205.12064 L 741.379,200.99697 L 735.86128,201.74081 L 738.62714,196.90877 L 736.21464,191.89097 L 741.66487,193.02828 L 745.69159,189.18327 L 746.29415,194.7182 L 751.1953,197.35966 L 746.11747,199.64312 L 745.11984,205.12064 z"
         inkscape:randomized="0"
         inkscape:rounded="0"
         inkscape:flatsided="false"
         sodipodi:arg2="1.9208152"
         sodipodi:arg1="1.2924967"
         sodipodi:r2="4.1920819"
         sodipodi:r1="8.3841639"
         sodipodi:cy="197.05907"
         sodipodi:cx="742.81653"
         sodipodi:sides="5"
         id="path2391"
         style="fill:#f2ff00;fill-opacity:1;stroke:#000000;stroke-width:1;stroke-linecap:square;stroke-miterlimit:4;stroke-dasharray:none;stroke-opacity:1"
         sodipodi:type="star"
         inkscape:label="sensor: true" />
    </g>
  </g>
</svg>
